<svg xmlns="http://www.w3.org/2000/svg" xmlns:xlink="http://www.w3.org/1999/xlink" width="500" zoomAndPan="magnify" viewBox="0 0 375 374.999991" height="500" preserveAspectRatio="xMidYMid meet" version="1.0"><defs><g/><clipPath id="bfd74030d5"><path d="M 183.777344 44.75 L 191.855469 44.75 L 191.855469 138.277344 L 183.777344 138.277344 Z M 183.777344 44.75 " clip-rule="nonzero"/></clipPath><clipPath id="07002b4efa"><path d="M 0.777344 0.75 L 8.855469 0.75 L 8.855469 94.277344 L 0.777344 94.277344 Z M 0.777344 0.75 " clip-rule="nonzero"/></clipPath><clipPath id="6789400521"><rect x="0" width="9" y="0" height="95"/></clipPath><clipPath id="60505a9c57"><path d="M 183.777344 133.015625 L 191.855469 133.015625 L 191.855469 226.539062 L 183.777344 226.539062 Z M 183.777344 133.015625 " clip-rule="nonzero"/></clipPath><clipPath id="d1ae4168f6"><path d="M 0.777344 0.015625 L 8.855469 0.015625 L 8.855469 93.539062 L 0.777344 93.539062 Z M 0.777344 0.015625 " clip-rule="nonzero"/></clipPath><clipPath id="cef4b066e0"><rect x="0" width="9" y="0" height="94"/></clipPath><clipPath id="842dfecf94"><path d="M 124 74 L 184 74 L 184 134 L 124 134 Z M 124 74 " clip-rule="nonzero"/></clipPath><clipPath id="f70e96016e"><path d="M 124.859375 77.464844 L 128.230469 74.097656 L 183.777344 129.644531 L 180.410156 133.011719 Z M 124.859375 77.464844 " clip-rule="nonzero"/></clipPath><clipPath id="9a3699c508"><path d="M 0.800781 0 L 59.839844 0 L 59.839844 59.199219 L 0.800781 59.199219 Z M 0.800781 0 " clip-rule="nonzero"/></clipPath><clipPath id="a6474518a8"><path d="M 0.859375 3.464844 L 4.230469 0.0976562 L 59.777344 55.644531 L 56.410156 59.011719 Z M 0.859375 3.464844 " clip-rule="nonzero"/></clipPath><clipPath id="123bc0a427"><rect x="0" width="60" y="0" height="60"/></clipPath><clipPath id="df9af977a2"><path d="M 129 133 L 189 133 L 189 193 L 129 193 Z M 129 133 " clip-rule="nonzero"/></clipPath><clipPath id="00edd0f871"><path d="M 132.832031 192.074219 L 129.105469 188.347656 L 184.445312 133.011719 L 188.167969 136.734375 Z M 132.832031 192.074219 " clip-rule="nonzero"/></clipPath><clipPath id="a352572774"><path d="M 0 0 L 59.398438 0 L 59.398438 59.238281 L 0 59.238281 Z M 0 0 " clip-rule="nonzero"/></clipPath><clipPath id="fba17d6b54"><path d="M 3.832031 59.074219 L 0.105469 55.347656 L 55.445312 0.0117188 L 59.167969 3.734375 Z M 3.832031 59.074219 " clip-rule="nonzero"/></clipPath><clipPath id="09e36c5e88"><rect x="0" width="60" y="0" height="60"/></clipPath><clipPath id="1148be6db6"><path d="M 184 73 L 249 73 L 249 139 L 184 139 Z M 184 73 " clip-rule="nonzero"/></clipPath><clipPath id="1e0b3c417d"><path d="M 245.097656 73.585938 L 248.589844 77.078125 L 187.621094 138.046875 L 184.128906 134.554688 Z M 245.097656 73.585938 " clip-rule="nonzero"/></clipPath><clipPath id="99f8ef342a"><path d="M 0.078125 0.441406 L 64.640625 0.441406 L 64.640625 65.238281 L 0.078125 65.238281 Z M 0.078125 0.441406 " clip-rule="nonzero"/></clipPath><clipPath id="be24ccc3a6"><path d="M 61.097656 0.585938 L 64.589844 4.078125 L 3.621094 65.046875 L 0.128906 61.554688 Z M 61.097656 0.585938 " clip-rule="nonzero"/></clipPath><clipPath id="c0444adf80"><rect x="0" width="65" y="0" height="66"/></clipPath><clipPath id="2daf1bd957"><path d="M 188 135 L 245 135 L 245 193 L 188 193 Z M 188 135 " clip-rule="nonzero"/></clipPath><clipPath id="f311e6b8de"><path d="M 188.175781 139.347656 L 191.898438 135.625 L 244.621094 188.347656 L 240.898438 192.074219 Z M 188.175781 139.347656 " clip-rule="nonzero"/></clipPath><clipPath id="498542ed47"><path d="M 0.160156 0.601562 L 56.800781 0.601562 L 56.800781 57.238281 L 0.160156 57.238281 Z M 0.160156 0.601562 " clip-rule="nonzero"/></clipPath><clipPath id="94c49443b3"><path d="M 0.175781 4.347656 L 3.898438 0.625 L 56.621094 53.347656 L 52.898438 57.074219 Z M 0.175781 4.347656 " clip-rule="nonzero"/></clipPath><clipPath id="a0da1ba0fd"><rect x="0" width="57" y="0" height="58"/></clipPath><clipPath id="b5f5242b73"><path d="M 105.21875 133.007812 L 183.777344 133.007812 L 183.777344 137.773438 L 105.21875 137.773438 Z M 105.21875 133.007812 " clip-rule="nonzero"/></clipPath><clipPath id="46d1193baf"><path d="M 0.21875 0.0078125 L 78.777344 0.0078125 L 78.777344 4.773438 L 0.21875 4.773438 Z M 0.21875 0.0078125 " clip-rule="nonzero"/></clipPath><clipPath id="b14186c3bd"><rect x="0" width="79" y="0" height="5"/></clipPath><clipPath id="482389c91f"><path d="M 191.222656 133.007812 L 269.777344 133.007812 L 269.777344 137.773438 L 191.222656 137.773438 Z M 191.222656 133.007812 " clip-rule="nonzero"/></clipPath><clipPath id="807994dbbf"><path d="M 0.222656 0.0078125 L 78.777344 0.0078125 L 78.777344 4.773438 L 0.222656 4.773438 Z M 0.222656 0.0078125 " clip-rule="nonzero"/></clipPath><clipPath id="28d71f4f0b"><rect x="0" width="79" y="0" height="5"/></clipPath><clipPath id="f39695afa1"><path d="M 175.34375 120.183594 L 201 120.183594 L 201 145.84375 L 175.34375 145.84375 Z M 175.34375 120.183594 " clip-rule="nonzero"/></clipPath><clipPath id="597ff398af"><path d="M 188.171875 120.183594 C 181.085938 120.183594 175.34375 125.929688 175.34375 133.015625 C 175.34375 140.101562 181.085938 145.84375 188.171875 145.84375 C 195.257812 145.84375 201 140.101562 201 133.015625 C 201 125.929688 195.257812 120.183594 188.171875 120.183594 Z M 188.171875 120.183594 " clip-rule="nonzero"/></clipPath><clipPath id="1a19a4f8ca"><path d="M 0.34375 0.183594 L 26 0.183594 L 26 25.84375 L 0.34375 25.84375 Z M 0.34375 0.183594 " clip-rule="nonzero"/></clipPath><clipPath id="9f34d376c1"><path d="M 13.171875 0.183594 C 6.085938 0.183594 0.34375 5.929688 0.34375 13.015625 C 0.34375 20.101562 6.085938 25.84375 13.171875 25.84375 C 20.257812 25.84375 26 20.101562 26 13.015625 C 26 5.929688 20.257812 0.183594 13.171875 0.183594 Z M 13.171875 0.183594 " clip-rule="nonzero"/></clipPath><clipPath id="a5b6291b35"><rect x="0" width="26" y="0" height="26"/></clipPath><clipPath id="500487a054"><rect x="0" width="275" y="0" height="50"/></clipPath><clipPath id="3056a79766"><rect x="0" width="57" y="0" height="24"/></clipPath></defs><g clip-path="url(#bfd74030d5)"><g transform="matrix(1, 0, 0, 1, 183, 44)"><g clip-path="url(#6789400521)"><g clip-path="url(#07002b4efa)"><path fill="#ffffff" d="M 0.777344 0.75 L 8.855469 0.75 L 8.855469 94.269531 L 0.777344 94.269531 Z M 0.777344 0.75 " fill-opacity="1" fill-rule="nonzero"/></g></g></g></g><g clip-path="url(#60505a9c57)"><g transform="matrix(1, 0, 0, 1, 183, 133)"><g clip-path="url(#cef4b066e0)"><g clip-path="url(#d1ae4168f6)"><path fill="#ffffff" d="M 0.777344 0.015625 L 8.855469 0.015625 L 8.855469 93.53125 L 0.777344 93.53125 Z M 0.777344 0.015625 " fill-opacity="1" fill-rule="nonzero"/></g></g></g></g><g clip-path="url(#842dfecf94)"><g clip-path="url(#f70e96016e)"><g transform="matrix(1, 0, 0, 1, 124, 74)"><g clip-path="url(#123bc0a427)"><g clip-path="url(#9a3699c508)"><g clip-path="url(#a6474518a8)"><path fill="#ffffff" d="M 0.859375 3.464844 L 4.230469 0.0976562 L 59.773438 55.636719 L 56.402344 59.007812 Z M 0.859375 3.464844 " fill-opacity="1" fill-rule="nonzero"/></g></g></g></g></g></g><g clip-path="url(#df9af977a2)"><g clip-path="url(#00edd0f871)"><g transform="matrix(1, 0, 0, 1, 129, 133)"><g clip-path="url(#09e36c5e88)"><g clip-path="url(#a352572774)"><g clip-path="url(#fba17d6b54)"><path fill="#ffffff" d="M 3.832031 59.074219 L 0.105469 55.347656 L 55.441406 0.015625 L 59.164062 3.738281 Z M 3.832031 59.074219 " fill-opacity="1" fill-rule="nonzero"/></g></g></g></g></g></g><g clip-path="url(#1148be6db6)"><g clip-path="url(#1e0b3c417d)"><g transform="matrix(1, 0, 0, 1, 184, 73)"><g clip-path="url(#c0444adf80)"><g clip-path="url(#99f8ef342a)"><g clip-path="url(#be24ccc3a6)"><path fill="#ffffff" d="M 61.097656 0.585938 L 64.589844 4.078125 L 3.625 65.046875 L 0.128906 61.550781 Z M 61.097656 0.585938 " fill-opacity="1" fill-rule="nonzero"/></g></g></g></g></g></g><g clip-path="url(#2daf1bd957)"><g clip-path="url(#f311e6b8de)"><g transform="matrix(1, 0, 0, 1, 188, 135)"><g clip-path="url(#a0da1ba0fd)"><g clip-path="url(#498542ed47)"><g clip-path="url(#94c49443b3)"><path fill="#ffffff" d="M 0.175781 4.347656 L 3.898438 0.625 L 56.628906 53.355469 L 52.90625 57.078125 Z M 0.175781 4.347656 " fill-opacity="1" fill-rule="nonzero"/></g></g></g></g></g></g><g clip-path="url(#b5f5242b73)"><g transform="matrix(1, 0, 0, 1, 105, 133)"><g clip-path="url(#b14186c3bd)"><g clip-path="url(#46d1193baf)"><path fill="#ffffff" d="M 0.21875 4.773438 L 0.21875 0.0078125 L 78.769531 0.0078125 L 78.769531 4.773438 Z M 0.21875 4.773438 " fill-opacity="1" fill-rule="nonzero"/></g></g></g></g><g clip-path="url(#482389c91f)"><g transform="matrix(1, 0, 0, 1, 191, 133)"><g clip-path="url(#28d71f4f0b)"><g clip-path="url(#807994dbbf)"><path fill="#ffffff" d="M 0.222656 4.773438 L 0.222656 0.0078125 L 78.769531 0.0078125 L 78.769531 4.773438 Z M 0.222656 4.773438 " fill-opacity="1" fill-rule="nonzero"/></g></g></g></g><g clip-path="url(#f39695afa1)"><g clip-path="url(#597ff398af)"><g transform="matrix(1, 0, 0, 1, 175, 120)"><g clip-path="url(#a5b6291b35)"><g clip-path="url(#1a19a4f8ca)"><g clip-path="url(#9f34d376c1)"><path fill="#000000" d="M 0.34375 0.183594 L 26 0.183594 L 26 25.84375 L 0.34375 25.84375 Z M 0.34375 0.183594 " fill-opacity="1" fill-rule="nonzero"/></g></g></g></g></g></g><g transform="matrix(1, 0, 0, 1, 65, 252)"><g clip-path="url(#500487a054)"><g fill="#ffffff" fill-opacity="1"><g transform="translate(1.163127, 39.468811)"><g><path d="M 14.515625 0.71875 C 12.929688 0.71875 11.414062 0.523438 9.96875 0.140625 C 8.53125 -0.242188 7.253906 -0.84375 6.140625 -1.65625 C 5.023438 -2.46875 4.144531 -3.515625 3.5 -4.796875 C 2.863281 -6.078125 2.546875 -7.617188 2.546875 -9.421875 L 2.546875 -27.609375 C 2.546875 -28.117188 2.800781 -28.375 3.3125 -28.375 L 8.40625 -28.375 C 8.90625 -28.375 9.15625 -28.117188 9.15625 -27.609375 L 9.15625 -10.953125 C 9.15625 -9.554688 9.363281 -8.429688 9.78125 -7.578125 C 10.207031 -6.734375 10.816406 -6.117188 11.609375 -5.734375 C 12.410156 -5.347656 13.378906 -5.15625 14.515625 -5.15625 C 15.660156 -5.15625 16.632812 -5.347656 17.4375 -5.734375 C 18.238281 -6.117188 18.84375 -6.734375 19.25 -7.578125 C 19.664062 -8.429688 19.875 -9.554688 19.875 -10.953125 L 19.875 -27.609375 C 19.875 -28.117188 20.125 -28.375 20.625 -28.375 L 25.734375 -28.375 C 26.234375 -28.375 26.484375 -28.117188 26.484375 -27.609375 L 26.484375 -9.421875 C 26.484375 -7.617188 26.171875 -6.078125 25.546875 -4.796875 C 24.921875 -3.515625 24.054688 -2.46875 22.953125 -1.65625 C 21.847656 -0.84375 20.570312 -0.242188 19.125 0.140625 C 17.675781 0.523438 16.140625 0.71875 14.515625 0.71875 Z M 14.515625 0.71875 "/></g></g></g><g fill="#ffffff" fill-opacity="1"><g transform="translate(60.464563, 39.468811)"><g><path d="M 8.34375 0 L 3.609375 0 C 3.097656 0 2.84375 -0.25 2.84375 -0.75 L 2.84375 -27.71875 C 2.84375 -28.375 3.023438 -28.789062 3.390625 -28.96875 C 3.753906 -29.144531 4.1875 -28.992188 4.6875 -28.515625 L 20.71875 -12.546875 L 20.71875 -27.609375 C 20.71875 -28.117188 20.972656 -28.375 21.484375 -28.375 L 26.234375 -28.375 C 26.734375 -28.375 26.984375 -28.117188 26.984375 -27.609375 L 26.984375 -0.671875 C 26.984375 -0.234375 26.890625 0.0976562 26.703125 0.328125 C 26.523438 0.554688 26.285156 0.644531 25.984375 0.59375 C 25.679688 0.550781 25.34375 0.351562 24.96875 0 L 9.09375 -16.203125 L 9.09375 -0.75 C 9.09375 -0.25 8.84375 0 8.34375 0 Z M 8.34375 0 "/></g></g></g><g fill="#ffffff" fill-opacity="1"><g transform="translate(120.560047, 39.468811)"><g><path d="M 8.5 0 L 3.5625 0 C 3.0625 0 2.8125 -0.25 2.8125 -0.75 L 2.8125 -27.609375 C 2.8125 -28.117188 3.0625 -28.375 3.5625 -28.375 L 8.5 -28.375 C 9 -28.375 9.25 -28.117188 9.25 -27.609375 L 9.25 -0.75 C 9.25 -0.25 9 0 8.5 0 Z M 8.5 0 "/></g></g></g><g fill="#ffffff" fill-opacity="1"><g transform="translate(162.891055, 39.468811)"><g><path d="M 8.5 0 L 3.5625 0 C 3.0625 0 2.8125 -0.25 2.8125 -0.75 L 2.8125 -27.609375 C 2.8125 -28.117188 3.0625 -28.375 3.5625 -28.375 L 20.109375 -28.375 C 20.617188 -28.375 20.875 -28.117188 20.875 -27.609375 L 20.875 -23.546875 C 20.875 -23.046875 20.617188 -22.796875 20.109375 -22.796875 L 9.25 -22.796875 L 9.25 -14.84375 L 18.53125 -14.84375 C 19.03125 -14.84375 19.28125 -14.59375 19.28125 -14.09375 L 19.28125 -10.328125 C 19.28125 -9.816406 19.03125 -9.5625 18.53125 -9.5625 L 9.25 -9.5625 L 9.25 -0.75 C 9.25 -0.25 9 0 8.5 0 Z M 8.5 0 "/></g></g></g><g fill="#ffffff" fill-opacity="1"><g transform="translate(215.304603, 39.468811)"><g><path d="M 16.65625 0 L 11.703125 0 C 11.203125 0 10.953125 -0.25 10.953125 -0.75 L 10.953125 -11.578125 L 0.53125 -27.46875 C 0.363281 -27.707031 0.328125 -27.914062 0.421875 -28.09375 C 0.523438 -28.28125 0.722656 -28.375 1.015625 -28.375 L 7.03125 -28.375 C 7.4375 -28.375 7.742188 -28.203125 7.953125 -27.859375 L 14.203125 -17.46875 L 20.515625 -27.859375 C 20.722656 -28.203125 21.03125 -28.375 21.4375 -28.375 L 27.46875 -28.375 C 27.769531 -28.375 27.96875 -28.28125 28.0625 -28.09375 C 28.164062 -27.914062 28.132812 -27.707031 27.96875 -27.46875 L 17.421875 -11.578125 L 17.421875 -0.75 C 17.421875 -0.25 17.164062 0 16.65625 0 Z M 16.65625 0 "/></g></g></g></g></g><g transform="matrix(1, 0, 0, 1, 163, 306)"><g clip-path="url(#3056a79766)"><g fill="#ffffff" fill-opacity="1"><g transform="translate(1.702007, 19.203493)"><g><path d="M 2.8125 0 L 1.78125 0 C 1.53125 0 1.40625 -0.125 1.40625 -0.375 L 1.40625 -13.8125 C 1.40625 -14.0625 1.53125 -14.1875 1.78125 -14.1875 L 5.53125 -14.1875 C 7.445312 -14.1875 8.851562 -13.769531 9.75 -12.9375 C 10.644531 -12.113281 11.09375 -10.910156 11.09375 -9.328125 C 11.09375 -7.710938 10.640625 -6.492188 9.734375 -5.671875 C 8.828125 -4.847656 7.460938 -4.4375 5.640625 -4.4375 L 3.203125 -4.4375 L 3.203125 -0.375 C 3.203125 -0.125 3.070312 0 2.8125 0 Z M 3.203125 -12.5 L 3.203125 -6.125 L 5.421875 -6.125 C 5.609375 -6.125 5.832031 -6.128906 6.09375 -6.140625 C 6.363281 -6.148438 6.644531 -6.1875 6.9375 -6.25 C 7.226562 -6.3125 7.515625 -6.40625 7.796875 -6.53125 C 8.078125 -6.664062 8.332031 -6.847656 8.5625 -7.078125 C 8.789062 -7.316406 8.972656 -7.617188 9.109375 -7.984375 C 9.253906 -8.347656 9.328125 -8.796875 9.328125 -9.328125 C 9.328125 -9.847656 9.257812 -10.289062 9.125 -10.65625 C 8.988281 -11.019531 8.804688 -11.316406 8.578125 -11.546875 C 8.347656 -11.785156 8.09375 -11.96875 7.8125 -12.09375 C 7.53125 -12.21875 7.242188 -12.3125 6.953125 -12.375 C 6.660156 -12.4375 6.378906 -12.472656 6.109375 -12.484375 C 5.835938 -12.492188 5.609375 -12.5 5.421875 -12.5 Z M 3.203125 -12.5 "/></g></g></g><g fill="#ffffff" fill-opacity="1"><g transform="translate(21.039918, 19.203493)"><g><path d="M 2.84375 0 L 1.78125 0 C 1.53125 0 1.40625 -0.125 1.40625 -0.375 L 1.40625 -13.8125 C 1.40625 -14.0625 1.53125 -14.1875 1.78125 -14.1875 L 2.84375 -14.1875 C 3.09375 -14.1875 3.21875 -14.0625 3.21875 -13.8125 L 3.21875 -0.375 C 3.21875 -0.125 3.09375 0 2.84375 0 Z M 2.84375 0 "/></g></g></g><g fill="#ffffff" fill-opacity="1"><g transform="translate(33.218028, 19.203493)"><g><path d="M 8.171875 0.296875 C 7.359375 0.296875 6.582031 0.179688 5.84375 -0.046875 C 5.101562 -0.273438 4.425781 -0.601562 3.8125 -1.03125 C 3.207031 -1.46875 2.675781 -1.988281 2.21875 -2.59375 C 1.769531 -3.207031 1.421875 -3.890625 1.171875 -4.640625 C 0.921875 -5.398438 0.796875 -6.21875 0.796875 -7.09375 C 0.796875 -7.96875 0.921875 -8.785156 1.171875 -9.546875 C 1.421875 -10.304688 1.769531 -10.988281 2.21875 -11.59375 C 2.675781 -12.195312 3.207031 -12.710938 3.8125 -13.140625 C 4.425781 -13.578125 5.097656 -13.910156 5.828125 -14.140625 C 6.566406 -14.367188 7.34375 -14.484375 8.15625 -14.484375 C 9.175781 -14.484375 10.125 -14.300781 11 -13.9375 C 11.882812 -13.582031 12.660156 -13.085938 13.328125 -12.453125 C 13.421875 -12.367188 13.460938 -12.28125 13.453125 -12.1875 C 13.441406 -12.101562 13.390625 -12.015625 13.296875 -11.921875 L 12.484375 -11.265625 C 12.304688 -11.109375 12.128906 -11.113281 11.953125 -11.28125 C 11.453125 -11.738281 10.878906 -12.09375 10.234375 -12.34375 C 9.585938 -12.601562 8.894531 -12.734375 8.15625 -12.734375 C 7.394531 -12.734375 6.675781 -12.597656 6 -12.328125 C 5.332031 -12.054688 4.742188 -11.671875 4.234375 -11.171875 C 3.734375 -10.679688 3.335938 -10.085938 3.046875 -9.390625 C 2.753906 -8.703125 2.609375 -7.941406 2.609375 -7.109375 C 2.609375 -6.273438 2.753906 -5.507812 3.046875 -4.8125 C 3.335938 -4.125 3.738281 -3.523438 4.25 -3.015625 C 4.757812 -2.515625 5.347656 -2.128906 6.015625 -1.859375 C 6.691406 -1.585938 7.414062 -1.453125 8.1875 -1.453125 C 8.914062 -1.453125 9.601562 -1.582031 10.25 -1.84375 C 10.894531 -2.101562 11.460938 -2.457031 11.953125 -2.90625 C 12.128906 -3.070312 12.304688 -3.078125 12.484375 -2.921875 L 13.296875 -2.28125 C 13.503906 -2.101562 13.523438 -1.929688 13.359375 -1.765625 C 12.703125 -1.128906 11.925781 -0.625 11.03125 -0.25 C 10.144531 0.113281 9.191406 0.296875 8.171875 0.296875 Z M 8.171875 0.296875 "/></g></g></g></g></g></svg>